<?xml version="1.0" encoding="utf-8"?>
<svg xmlns="http://www.w3.org/2000/svg" viewBox="0 0 500 500" xmlns:bx="https://boxy-svg.com" width="500px" height="500px"><defs><bx:export><bx:file format="svg"/></bx:export></defs><ellipse style="fill: rgb(216, 216, 216); stroke: rgb(0, 0, 0); visibility: hidden; stroke-width: 1;" cx="244.8" cy="282.838" rx="268.102" ry="268.102"/><path d="M 438.763 237.428 L 462.552 191.175 C 467.922 191.175 473.064 193.056 477.719 195.725 C 482.375 198.379 487.167 201.73 489.852 206.341 C 492.536 210.952 494.402 216.183 494.402 221.505 C 494.402 226.831 492.536 232.059 489.852 236.668 L 359.426 477.813 C 356.74 482.425 353.449 485.761 348.809 488.431 C 344.153 491.085 337.495 492.98 332.126 492.98 C 326.758 492.98 321.601 491.085 316.959 488.431 C 312.304 485.761 309.028 482.425 306.344 477.813 L 253.263 382.269 L 195.634 479.331 C 192.948 483.942 189.672 488.795 185.016 491.464 C 180.361 494.118 175.219 494.497 169.85 494.497 C 164.483 494.497 159.341 494.118 154.686 491.464 C 150.028 488.795 145.236 483.942 142.552 479.331 L 1.508 236.668 C -1.176 232.059 -1.525 226.831 -1.525 221.505 C -1.525 216.183 -1.176 210.952 1.508 206.341 C 4.194 201.73 8.986 198.379 13.641 195.725 C 18.297 193.056 23.438 191.175 28.808 191.175 L 29.277 191.175 L 69.528 257.644 L 169.85 430.8 L 225.964 335.255 L 280.562 335.255 L 328.699 436.563 L 438.763 237.428 Z" style="stroke-width: 1; fill: rgb(0, 172, 220);"/><path d="M 28.444 326.822 L 119.438 480.013 C 116.755 484.609 113.493 489.461 108.823 492.131 C 104.168 494.785 99.041 495.164 93.656 495.164 C 88.287 495.164 83.163 494.785 78.49 492.131 C 73.835 489.461 69.058 484.609 66.359 480.013 L 1.145 372.32 C -1.54 367.711 -1.888 362.493 -1.888 357.155 C -1.888 351.83 -1.54 346.599 1.145 341.988 C 3.829 337.378 8.621 334.042 13.277 331.372 C 17.934 328.718 23.074 326.822 28.444 326.822 Z M 93.656 431.467 L 58.775 375.353 L 93.656 431.467 Z" style="stroke-width: 1;"/><path d="M 402.379 329.523 L 493.389 482.715 C 490.705 487.31 487.428 492.162 482.772 494.832 C 478.116 497.486 472.975 497.865 467.607 497.865 C 462.238 497.865 457.096 497.486 452.441 494.832 C 447.785 492.162 442.993 487.31 440.307 482.715 L 375.079 375.021 C 372.394 370.411 372.046 365.178 372.046 359.855 C 372.046 354.531 372.394 349.3 375.079 344.689 C 377.764 340.079 382.572 336.742 387.212 334.073 C 391.883 331.419 397.009 329.523 402.379 329.523 Z M 467.607 434.168 L 432.709 378.054 L 467.607 434.168 Z" style="stroke-width: 1; transform-origin: 432.725px 413.694px;" transform="matrix(-0.469471, -0.882948, 0.882948, -0.469471, -0.000001, -0.000025)"/><path d="M 64.524 108.218 L 197.691 337.36 C 195.021 341.956 191.745 346.808 187.074 349.477 C 182.434 352.131 177.292 352.511 171.91 352.511 C 166.555 352.511 161.414 352.131 156.743 349.477 C 152.103 346.808 147.294 341.956 144.61 337.36 L 37.224 153.715 C 34.555 149.105 34.191 143.874 34.191 138.549 C 34.191 133.226 34.555 127.993 37.224 123.384 C 39.909 118.773 44.717 115.436 49.358 112.767 C 54.028 110.099 59.169 108.218 64.524 108.218 Z M 171.91 288.814 L 94.854 156.748 L 171.91 288.814 Z" style="stroke-width: 1; fill: rgb(220, 201, 0);"/><path d="M 326.8 46.249 L 463.872 261.325 C 461.264 265.557 458.064 270 453.514 272.456 C 448.979 274.884 443.959 275.233 438.728 275.233 C 433.48 275.233 428.475 274.884 423.925 272.456 C 419.391 270 414.705 265.557 412.096 261.325 L 300.169 88.001 C 297.544 83.769 297.211 78.978 297.211 74.093 C 297.211 69.195 297.544 64.403 300.169 60.172 C 302.777 55.94 307.464 52.861 311.999 50.421 C 316.549 47.978 321.553 46.249 326.8 46.249 Z M 438.728 216.76 L 356.389 90.792 L 438.728 216.76 Z" style="stroke-width: 1; fill: rgb(255, 203, 56); transform-origin: 404.695px 197.987px;" transform="matrix(-0.484809, -0.87462, 0.87462, -0.484809, 0.000005, -0.000024)"/></svg>