<?xml version="1.0" encoding="utf-8"?>
<svg xmlns="http://www.w3.org/2000/svg" viewBox="0 0 500 500" xmlns:bx="https://boxy-svg.com" width="500px" height="500px"><defs><bx:export><bx:file format="svg"/></bx:export></defs><ellipse style="fill: rgb(216, 216, 216); stroke: rgb(0, 0, 0); visibility: hidden; stroke-width: 1;" cx="244.8" cy="282.838" rx="268.102" ry="268.102"/><path d="M 438.763 199.041 L 462.552 146.196 C 467.922 146.196 473.064 148.345 477.719 151.394 C 482.375 154.427 487.167 158.255 489.852 163.523 C 492.536 168.791 494.402 174.768 494.402 180.848 C 494.402 186.933 492.536 192.906 489.852 198.172 L 359.426 473.684 C 356.74 478.953 353.449 482.765 348.809 485.815 C 344.153 488.847 337.495 491.012 332.126 491.012 C 326.758 491.012 321.601 488.847 316.959 485.815 C 312.304 482.765 309.028 478.953 306.344 473.684 L 253.263 364.523 L 195.634 475.418 C 192.948 480.686 189.672 486.231 185.016 489.28 C 180.361 492.313 175.219 492.746 169.85 492.746 C 164.483 492.746 159.341 492.313 154.686 489.28 C 150.028 486.231 145.236 480.686 142.552 475.418 L 1.508 198.172 C -1.176 192.906 -1.525 186.933 -1.525 180.848 C -1.525 174.768 -1.176 168.791 1.508 163.523 C 4.194 158.255 8.986 154.427 13.641 151.394 C 18.297 148.345 23.438 146.196 28.808 146.196 L 29.277 146.196 L 69.528 222.138 L 169.85 419.971 L 225.964 310.809 L 280.562 310.809 L 328.699 426.555 L 438.763 199.041 Z" style="stroke-width: 1; fill: rgb(0, 172, 220);"/><path d="M 30.398 304.234 L 121.392 479.256 C 118.709 484.507 115.447 490.051 110.777 493.101 C 106.122 496.134 100.995 496.567 95.61 496.567 C 90.241 496.567 85.117 496.134 80.444 493.101 C 75.789 490.051 71.012 484.507 68.313 479.256 L 3.099 356.216 C 0.414 350.95 0.066 344.988 0.066 338.889 C 0.066 332.805 0.414 326.829 3.099 321.561 C 5.783 316.294 10.575 312.482 15.231 309.432 C 19.888 306.4 25.028 304.234 30.398 304.234 Z M 95.61 423.792 L 60.729 359.681 L 95.61 423.792 Z" style="stroke-width: 1; fill: rgb(0, 172, 220);"/><path d="M 376.874 480.568 L 469.408 306.59 C 474.725 306.833 480.548 307.536 485.091 310.801 C 489.62 314.074 492.368 319.057 494.888 324.472 C 497.409 329.889 499.488 335.279 499.33 341.398 C 499.159 347.527 497.124 354.964 494.328 360.138 L 429.863 483.704 C 427.053 488.885 422.596 492.043 417.896 494.898 C 413.195 497.754 408.413 500.208 403.081 499.973 C 397.75 499.737 392.547 496.677 388.012 493.428 C 383.476 490.139 379.395 485.985 376.874 480.568 Z M 438.647 358.638 L 405.485 423.941 L 438.647 358.638 Z" style="stroke-width: 1; fill: rgb(0, 172, 220); transform-origin: 436.946px 418.075px;"/><path d="M 61.961 -319.26 L 195.128 -90.122 C 192.458 -85.526 189.182 -80.674 184.511 -78.005 C 179.871 -75.351 174.729 -74.971 169.347 -74.971 C 163.992 -74.971 158.851 -75.351 154.18 -78.005 C 149.54 -80.674 144.731 -85.526 142.047 -90.122 L 34.661 -273.77 C 31.992 -278.38 31.628 -283.61 31.628 -288.93 C 31.628 -294.26 31.992 -299.49 34.661 -304.1 C 37.346 -308.71 42.154 -312.05 46.795 -314.71 C 51.465 -317.38 56.606 -319.26 61.961 -319.26 Z M 169.347 -138.67 L 92.291 -270.73 L 169.347 -138.67 Z" style="stroke-width: 1; fill: rgb(0, 172, 220);"/><path d="M 354.748 -374.74 L 491.82 -159.66 C 489.212 -155.43 486.012 -150.99 481.462 -148.53 C 476.927 -146.11 471.907 -145.76 466.676 -145.76 C 461.428 -145.76 456.423 -146.11 451.873 -148.53 C 447.339 -150.99 442.653 -155.43 440.044 -159.66 L 328.117 -332.99 C 325.492 -337.22 325.159 -342.01 325.159 -346.9 C 325.159 -351.8 325.492 -356.59 328.117 -360.82 C 330.725 -365.05 335.412 -368.13 339.947 -370.57 C 344.497 -373.01 349.501 -374.74 354.748 -374.74 Z M 466.676 -204.23 L 384.337 -330.2 L 466.676 -204.23 Z" style="stroke-width: 1; fill: rgb(0, 172, 220); transform-origin: 432.643px -223.003px;" transform="matrix(-0.484809, -0.87462, 0.87462, -0.484809, -0.000034, -0.000035)"/><path d="M 30.775 -1.048 L 195.942 327.658 C 193.259 332.909 189.997 338.453 185.327 341.503 C 180.672 344.536 175.545 344.969 170.16 344.969 C 164.791 344.969 159.667 344.536 154.994 341.503 C 150.339 338.453 145.562 332.909 142.863 327.658 L 3.476 50.934 C 0.791 45.668 0.443 39.706 0.443 33.607 C 0.443 27.523 0.791 21.547 3.476 16.279 C 6.16 11.012 10.952 7.2 15.608 4.15 C 20.265 1.118 25.405 -1.048 30.775 -1.048 Z M 170.16 272.194 L 61.106 54.399 L 170.16 272.194 Z" style="stroke-width: 1; fill: rgb(0, 172, 220);"/><path d="M 303.454 323.827 L 466.468 -1.289 C 471.785 -1.046 477.608 -0.343 482.151 2.922 C 486.68 6.195 489.428 11.178 491.948 16.593 C 494.469 22.01 496.548 27.4 496.39 33.519 C 496.219 39.648 494.184 47.085 491.388 52.259 L 356.443 326.963 C 353.633 332.144 349.176 335.302 344.476 338.157 C 339.775 341.013 334.993 343.467 329.661 343.232 C 324.33 342.996 319.127 339.936 314.592 336.687 C 310.056 333.398 305.975 329.244 303.454 323.827 Z M 435.707 50.759 L 332.065 267.2 L 435.707 50.759 Z" style="stroke-width: 1; fill: rgb(0, 172, 220); transform-origin: 434.006px 110.196px;"/></svg>