<?xml version="1.0" encoding="utf-8"?>
<svg width="100" height="100" viewBox="0 0 100 100" fill="none" xmlns="http://www.w3.org/2000/svg">
  <g clip-path="url(#clip0_1_2)">
    <path d="M50 0.810547C22.8447 0.810547 0.810547 22.8447 0.810547 50C0.810547 77.1553 22.8447 99.1895 50 99.1895C77.1553 99.1895 99.1895 77.1553 99.1895 50C99.1895 22.8447 77.1553 0.810547 50 0.810547ZM85.5009 60.8524C85.5009 60.8524 74.3217 60.8524 74.3217 60.8524C69.0435 60.8524 64.7176 65.1783 64.7176 70.4565C64.7176 70.4565 64.7176 81.6358 64.7176 81.6358C73.9576 80.932 82.2647 76.5413 88.0863 70.4359C88.8932 69.6108 89.5898 68.7058 90.1704 67.7314C90.1704 67.7314 85.5009 60.8524 85.5009 60.8524ZM14.4991 39.1476C14.4991 39.1476 25.6783 39.1476 25.6783 39.1476C30.9565 39.1476 35.2824 34.8217 35.2824 29.5435C35.2824 29.5435 35.2824 18.3642 35.2824 18.3642C26.0424 19.068 17.7353 23.4587 11.9137 29.5641C11.1068 30.3892 10.4102 31.2942 9.82962 32.2686C9.82962 32.2686 14.4991 39.1476 14.4991 39.1476ZM39.1476 14.4991C39.1476 14.4991 39.1476 25.6783 39.1476 25.6783C39.1476 30.9565 34.8217 35.2824 29.5435 35.2824C29.5435 35.2824 18.3642 35.2824 18.3642 35.2824C19.068 26.0424 23.4587 17.7353 29.5641 11.9137C30.3892 11.1068 31.2942 10.4102 32.2686 9.82962C32.2686 9.82962 39.1476 14.4991 39.1476 14.4991ZM60.8524 85.5009C60.8524 85.5009 60.8524 74.3217 60.8524 74.3217C60.8524 69.0435 65.1783 64.7176 70.4565 64.7176C70.4565 64.7176 81.6358 64.7176 81.6358 64.7176C80.932 73.9576 76.5413 82.2647 70.4359 88.0863C69.6108 88.8932 68.7058 89.5898 67.7314 90.1704C67.7314 90.1704 60.8524 85.5009 60.8524 85.5009ZM85.5009 39.1476C85.5009 39.1476 74.3217 39.1476 74.3217 39.1476C69.0435 39.1476 64.7176 34.8217 64.7176 29.5435C64.7176 29.5435 64.7176 18.3642 64.7176 18.3642C73.9576 19.068 82.2647 23.4587 88.0863 29.5641C88.8932 30.3892 89.5898 31.2942 90.1704 32.2686C90.1704 32.2686 85.5009 39.1476 85.5009 39.1476ZM14.4991 60.8524C14.4991 60.8524 25.6783 60.8524 25.6783 60.8524C30.9565 60.8524 35.2824 65.1783 35.2824 70.4565C35.2824 70.4565 35.2824 81.6358 35.2824 81.6358C26.0424 80.932 17.7353 76.5413 11.9137 70.4359C11.1068 69.6108 10.4102 68.7058 9.82962 67.7314C9.82962 67.7314 14.4991 60.8524 14.4991 60.8524ZM60.8524 14.4991C60.8524 14.4991 60.8524 25.6783 60.8524 25.6783C60.8524 30.9565 65.1783 35.2824 70.4565 35.2824C70.4565 35.2824 81.6358 35.2824 81.6358 35.2824C80.932 26.0424 76.5413 17.7353 70.4359 11.9137C69.6108 11.1068 68.7058 10.4102 67.7314 9.82962C67.7314 9.82962 60.8524 14.4991 60.8524 14.4991ZM39.1476 85.5009C39.1476 85.5009 39.1476 74.3217 39.1476 74.3217C39.1476 69.0435 34.8217 64.7176 29.5435 64.7176C29.5435 64.7176 18.3642 64.7176 18.3642 64.7176C19.068 73.9576 23.4587 82.2647 29.5641 88.0863C30.3892 88.8932 31.2942 89.5898 32.2686 90.1704C32.2686 90.1704 39.1476 85.5009 39.1476 85.5009Z" fill="#ACACAC"/>
    <path d="M50 71.0475C38.3813 71.0475 28.9525 61.6187 28.9525 50C28.9525 38.3813 38.3813 28.9525 50 28.9525C61.6187 28.9525 71.0475 38.3813 71.0475 50C71.0475 61.6187 61.6187 71.0475 50 71.0475ZM50 33.309C40.8596 33.309 33.309 40.8596 33.309 50C33.309 59.1404 40.8596 66.691 50 66.691C59.1404 66.691 66.691 59.1404 66.691 50C66.691 40.8596 59.1404 33.309 50 33.309Z" fill="white"/>
    <path d="M50 71.0475C38.3813 71.0475 28.9525 61.6187 28.9525 50C28.9525 38.3813 38.3813 28.9525 50 28.9525C61.6187 28.9525 71.0475 38.3813 71.0475 50C71.0475 61.6187 61.6187 71.0475 50 71.0475ZM50 33.309C40.8596 33.309 33.309 40.8596 33.309 50C33.309 59.1404 40.8596 66.691 50 66.691C59.1404 66.691 66.691 59.1404 66.691 50C66.691 40.8596 59.1404 33.309 50 33.309Z" fill="url(#paint0_linear_1_2)"/>
  </g>
  <defs>
    <linearGradient id="paint0_linear_1_2" x1="50" y1="28.9525" x2="50" y2="71.0475" gradientUnits="userSpaceOnUse">
      <stop stop-color="white"/>
      <stop offset="1" stop-color="#D0D0D0"/>
    </linearGradient>
    <clipPath id="clip0_1_2">
      <rect width="98.3795" height="98.3795" fill="white" transform="translate(0.810547 0.810547)"/>
    </clipPath>
  </defs>
</svg>
