<?xml version="1.0" encoding="UTF-8"?>
<svg width="600" height="600" viewBox="0 0 600 600" xmlns="http://www.w3.org/2000/svg" style="background-color:#000;">

  <defs>
    <filter id="glow" x="-50%" y="-50%" width="200%" height="200%">
      <feGaussianBlur stdDeviation="3.5" result="coloredBlur"></feGaussianBlur>
      <feMerge>
        <feMergeNode in="coloredBlur"></feMergeNode>
        <feMergeNode in="SourceGraphic"></feMergeNode>
      </feMerge>
    </filter>

    <radialGradient id="background_gradient" cx="50%" cy="50%" r="50%" fx="50%" fy="50%">
      <stop offset="0%" style="stop-color:#2c2c44; stop-opacity:1"></stop>
      <stop offset="100%" style="stop-color:#0a0a14; stop-opacity:1"></stop>
    </radialGradient>
  </defs>

  <rect width="600" height="600" fill="url(#background_gradient)"></rect>

  <g transform="translate(300, 300)" filter="url(#glow)">

    <g id="connections" stroke="gold" stroke-width="0.5">
      <line x1="99" y1="20" x2="168" y2="-120" stroke-opacity="0.6"></line>
      <line x1="168" y1="-120" x2="123" y2="120" stroke-opacity="0.5"></line>
      <line x1="123" y1="120" x2="-23" y2="-180" stroke-opacity="0.4"></line>
      <line x1="-23" y1="-180" x2="-147" y2="-90" stroke-opacity="0.3"></line>
      <line x1="-147" y1="-90" x2="-192" y2="72" stroke-opacity="0.5"></line>
      <line x1="-192" y1="72" x2="15" y2="195" stroke-opacity="0.7"></line>
      <line x1="15" y1="195" x2="99" y2="20" stroke-opacity="0.9"></line>
      <line x1="207" y1="41" x2="168" y2="-120" stroke-opacity="0.7"></line>
      <line x1="168" y1="-120" x2="-23" y2="-180" stroke-opacity="0.4"></line>
      <line x1="-23" y1="-180" x2="-192" y2="72" stroke-opacity="0.4"></line>
      <line x1="-192" y1="72" x2="99" y2="20" stroke-opacity="0.8"></line>
      <line x1="99" y1="20" x2="-80" y2="100" stroke-opacity="0.9"></line>
      <line x1="-80" y1="100" x2="123" y2="120" stroke-opacity="0.8"></line>
      <line x1="123" y1="120" x2="207" y2="41" stroke-opacity="0.9"></line>
      <line x1="207" y1="41" x2="-23" y2="-180" stroke-opacity="0.5"></line>
      <line x1="-23" y1="-180" x2="15" y2="195" stroke-opacity="0.6"></line>
      <line x1="15" y1="195" x2="-147" y2="-90" stroke-opacity="0.5"></line>
      <line x1="-147" y1="-90" x2="99" y2="20" stroke-opacity="0.7"></line>
      <line x1="-80" y1="100" x2="-192" y2="72" stroke-opacity="0.6"></line>
      <line x1="-192" y1="72" x2="168" y2="-120" stroke-opacity="0.5"></line>
      <line x1="168" y1="-120" x2="15" y2="195" stroke-opacity="0.7"></line>
      <line x1="15" y1="195" x2="-80" y2="100" stroke-opacity="0.9"></line>
      <line x1="-80" y1="100" x2="207" y2="41" stroke-opacity="1.0"></line>
      <line x1="207" y1="41" x2="-147" y2="-90" stroke-opacity="0.6"></line>
      <line x1="-147" y1="-90" x2="123" y2="120" stroke-opacity="0.7"></line>
      <line x1="-23" y1="-180" x2="-80" y2="100" stroke-opacity="0.6"></line>
      <line x1="99" y1="20" x2="123" y2="120" stroke-opacity="0.8"></line>
      <line x1="168" y1="-120" x2="-147" y2="-90" stroke-opacity="0.4"></line>
      <line x1="-192" y1="72" x2="15" y2="195" stroke-opacity="0.7"></line>
      <line x1="207" y1="41" x2="99" y2="20" stroke-opacity="1.0"></line>
    </g>

    <g id="nodes" fill="orange" stroke="gold" stroke-width="0.7">
      <circle cx="99" cy="20" r="4.5" fill-opacity="0.95"></circle>
      <circle cx="168" cy="-120" r="2.8" fill-opacity="0.65"></circle>
      <circle cx="123" cy="120" r="3.5" fill-opacity="0.8"></circle>
      <circle cx="-23" cy="-180" r="2.0" fill-opacity="0.45"></circle>
      <circle cx="-147" cy="-90" r="2.5" fill-opacity="0.55"></circle>
      <circle cx="-192" cy="72" r="3.0" fill-opacity="0.7"></circle>
      <circle cx="15" cy="195" r="4.0" fill-opacity="0.9"></circle>
      <circle cx="207" cy="41" r="5.0" fill-opacity="1.0"></circle>
      <circle cx="-80" cy="100" r="4.2" fill-opacity="0.92"></circle>
      <circle cx="45" cy="-75" r="2.2" fill-opacity="0.5"></circle>
      <circle cx="-60" cy="-145" r="1.8" fill-opacity="0.4"></circle>
      <circle cx="180" cy="95" r="4.8" fill-opacity="0.98"></circle>
      <circle cx="-170" cy="-110" r="2.1" fill-opacity="0.48"></circle>
      <circle cx="-30" cy="210" r="3.8" fill-opacity="0.85"></circle>
      <circle cx="110" cy="-190" r="2.4" fill-opacity="0.52"></circle>
    </g>

  </g>
</svg>
