<?xml version="1.0" encoding="utf-8"?>
<svg xmlns="http://www.w3.org/2000/svg" version="1.1" width="50px" height="50px" style="shape-rendering:geometricPrecision; text-rendering:geometricPrecision; image-rendering:optimizeQuality; fill-rule:evenodd; clip-rule:evenodd" viewBox="0 0 311 302"><defs></defs><g id="object-5" transform="matrix(1.134609, 0, 0, 1.134609, -33.655415, -22.227257)" style=""><path style="opacity:1" fill="#224466" d="M 167.5 36.5 C 167.833 37.833 168.167 39.167 168.5 40.5 C 167.5 78.254 167.325 145.061 166.857 131.825 C 166.032 108.494 166.833 131.916 166.5 131.916 C 166.5 121.583 166.5 133.833 166.5 123.5 C 166.169 94.329 166.502 65.329 167.5 36.5 Z"/></g><g id="object-6" transform="matrix(1.134609, 0, 0, 1.134609, -33.655415, -22.227257)" style=""><path style="opacity:1" fill="#9dd9f1" d="M 289.5,81.5 C 286.833,83.8333 284.167,86.1667 281.5,88.5C 282.135,85.5071 282.301,82.5071 282,79.5C 279.272,77.2318 276.439,75.0651 273.5,73C 271.115,72.4436 268.782,72.6103 266.5,73.5C 266.5,73.1667 266.5,72.8333 266.5,72.5C 282.53,63.9698 294.697,51.6364 303,35.5C 304.622,52.7855 300.122,68.1188 289.5,81.5 Z"/></g><g id="object-7" transform="matrix(1.134609, 0, 0, 1.134609, -33.655415, -22.227257)" style=""><path style="opacity: 1; fill: rgb(82, 162, 206);" d="M 167.5,34.5 C 167.5,35.1667 167.5,35.8333 167.5,36.5C 166.502,65.3285 166.169,94.3285 166.5,123.5C 165.178,123.67 164.011,123.337 163,122.5C 162.667,120.167 162.333,117.833 162,115.5C 161.751,116.624 161.251,117.624 160.5,118.5C 160.167,118.167 159.833,117.833 159.5,117.5C 160.562,113.5 160.395,109.5 159,105.5C 158.395,107.481 157.395,107.815 156,106.5C 155.503,103.854 155.336,101.187 155.5,98.5C 155.384,94.2982 156.217,90.2982 158,86.5C 158.499,81.8452 158.666,77.1785 158.5,72.5C 160.941,59.5193 163.275,46.5193 165.5,33.5C 165.369,32.6236 165.702,31.9569 166.5,31.5C 167.386,32.325 167.719,33.325 167.5,34.5 Z"/></g><g id="object-8" transform="matrix(1.134609, 0, 0, 1.134609, -33.655415, -22.227257)" style=""><path style="opacity:1" fill="#95d5ef" d="M 56.5,65.5 C 60.5,68.5 64.5,71.5 68.5,74.5C 67.1779,74.33 66.0113,74.6634 65,75.5C 64.3828,74.5509 64.5494,73.7175 65.5,73C 60.8334,69.0046 58.1667,70.0046 57.5,76C 59.1657,82.3202 56.8323,85.3202 50.5,85C 51.2524,85.6708 51.5858,86.5041 51.5,87.5C 47.8537,85.5181 44.8537,82.8515 42.5,79.5C 33.5571,66.6556 29.7238,52.3223 31,36.5C 37.6539,47.8208 46.1539,57.4875 56.5,65.5 Z"/></g><g id="object-9" transform="matrix(1.134609, 0, 0, 1.134609, -33.655415, -22.227257)" style=""><path style="opacity:1" fill="#84cbe7" d="M 281.5,88.5 C 270.234,97.3906 257.901,104.724 244.5,110.5C 245.406,108.583 246.739,106.917 248.5,105.5C 247.833,104.5 247.167,103.5 246.5,102.5C 247.025,101.808 247.692,101.308 248.5,101C 247.167,100.333 246.167,99.3333 245.5,98C 243.236,97.7638 241.069,97.2638 239,96.5C 237.202,98.7263 235.202,100.726 233,102.5C 230.587,101.976 228.42,100.976 226.5,99.5C 224.925,100.456 223.258,101.123 221.5,101.5C 226.743,96.8661 232.41,92.6995 238.5,89C 248.017,84.0769 257.35,78.9103 266.5,73.5C 268.782,72.6103 271.115,72.4436 273.5,73C 276.439,75.0651 279.272,77.2318 282,79.5C 282.301,82.5071 282.135,85.5071 281.5,88.5 Z"/></g><g id="object-10" transform="matrix(1.134609, 0, 0, 1.134609, -33.655415, -22.227257)" style=""><path style="opacity:1" fill="#83c9e7" d="M 68.5,74.5 C 79.3326,79.7459 89.666,85.7459 99.5,92.5C 97.6336,91.9862 95.8003,91.3195 94,90.5C 92.7753,90.8623 91.6086,91.3623 90.5,92C 91.8333,93 91.8333,94 90.5,95C 85.5283,97.0217 80.5283,98.855 75.5,100.5C 76.376,101.251 77.376,101.751 78.5,102C 78.1667,102.333 77.8333,102.667 77.5,103C 78.3805,103.708 79.0472,104.542 79.5,105.5C 69.1391,100.993 59.8057,94.993 51.5,87.5C 51.5858,86.5041 51.2524,85.6708 50.5,85C 56.8323,85.3202 59.1657,82.3202 57.5,76C 58.1667,70.0046 60.8334,69.0046 65.5,73C 64.5494,73.7175 64.3828,74.5509 65,75.5C 66.0113,74.6634 67.1779,74.33 68.5,74.5 Z"/></g><g id="object-11" transform="matrix(1.134609, 0, 0, 1.134609, -33.655415, -22.227257)" style=""><path style="opacity:1" fill="#73bfe0" d="M 41.5,86.5 C 49.4499,96.3111 59.1166,103.978 70.5,109.5C 63.9526,107.244 59.4526,109.244 57,115.5C 55.6667,114.167 54.3333,112.833 53,111.5C 51.4894,112.564 51.3228,113.897 52.5,115.5C 46.5541,108.267 42.7207,99.9335 41,90.5C 40.2034,88.2568 40.3701,86.9234 41.5,86.5 Z"/></g><g id="object-12" transform="matrix(1.134609, 0, 0, 1.134609, -33.655415, -22.227257)" style=""><path style="opacity:1" fill="#70badb" d="M 99.5,92.5 C 115.021,101.02 126.355,113.353 133.5,129.5C 131.018,128.337 129.684,126.337 129.5,123.5C 128.325,123.719 127.325,123.386 126.5,122.5C 126.113,119.794 125.113,117.461 123.5,115.5C 122.946,118.762 121.28,119.762 118.5,118.5C 117.614,119.325 117.281,120.325 117.5,121.5C 116.038,122.387 114.205,123.387 112,124.5C 111.51,125.793 111.343,127.127 111.5,128.5C 102.555,118.572 91.8882,110.906 79.5,105.5C 79.0472,104.542 78.3805,103.708 77.5,103C 77.8333,102.667 78.1667,102.333 78.5,102C 77.376,101.751 76.376,101.251 75.5,100.5C 80.5283,98.855 85.5283,97.0217 90.5,95C 91.8333,94 91.8333,93 90.5,92C 91.6086,91.3623 92.7753,90.8623 94,90.5C 95.8003,91.3195 97.6336,91.9862 99.5,92.5 Z"/></g><g id="object-13" transform="matrix(1.134609, 0, 0, 1.134609, -33.655415, -22.227257)" style=""><path style="opacity:1" fill="#69b7da" d="M 244.5,110.5 C 234.99,115.343 226.99,122.009 220.5,130.5C 221.813,122.846 218.48,118.513 210.5,117.5C 209.719,118.729 209.219,120.062 209,121.5C 207.855,121.381 206.688,121.048 205.5,120.5C 209.336,112.99 214.669,106.656 221.5,101.5C 223.258,101.123 224.925,100.456 226.5,99.5C 228.42,100.976 230.587,101.976 233,102.5C 235.202,100.726 237.202,98.7263 239,96.5C 241.069,97.2638 243.236,97.7638 245.5,98C 246.167,99.3333 247.167,100.333 248.5,101C 247.692,101.308 247.025,101.808 246.5,102.5C 247.167,103.5 247.833,104.5 248.5,105.5C 246.739,106.917 245.406,108.583 244.5,110.5 Z"/></g><g id="object-14" transform="matrix(1.134609, 0, 0, 1.134609, -33.655415, -22.227257)" style=""><path style="opacity:1" fill="#76bfdf" d="M 293.5,86.5 C 292.708,99.75 287.374,110.75 277.5,119.5C 275.941,115.273 272.941,112.273 268.5,110.5C 267.169,111.166 265.669,111.166 264,110.5C 258.799,113.4 253.299,115.4 247.5,116.5C 264.849,109.498 280.182,99.4985 293.5,86.5 Z"/></g><g id="object-15" transform="matrix(1.134609, 0, 0, 1.134609, -33.655415, -22.227257)" style=""><path style="opacity: 1; fill: rgb(58, 130, 180);" d="M 155.5 98.5 C 155.336 101.187 155.503 103.854 156 106.5 C 157.395 107.815 158.395 107.481 159 105.5 C 160.395 109.5 160.562 113.5 159.5 117.5 C 159.833 117.833 160.167 118.167 160.5 118.5 C 161.251 117.624 161.751 116.624 162 115.5 C 162.333 117.833 162.667 120.167 163 122.5 C 164.011 123.337 165.178 123.67 166.5 123.5 C 166.5 133.833 166.5 122.58 166.5 132.913 C 163.833 137.246 159.477 162.739 156.81 167.072 C 156.101 166.168 156.791 166.263 155.5 166.5 C 155.775 161.696 155.108 156.863 153.5 152 C 155.478 149.503 155.978 146.669 155 143.5 C 153.033 139.096 150.866 135.43 148.5 132.5 C 149.821 127.942 150.654 123.275 151 118.5 C 154.184 117.594 155.017 115.761 153.5 113 C 154.144 108.066 154.81 103.233 155.5 98.5 Z"/></g><g id="object-16" transform="matrix(1.134609, 0, 0, 1.134609, -33.655415, -22.227257)" style=""><path style="opacity:1" fill="#5ba9d0" d="M 70.5,109.5 C 80.6312,114.066 90.6312,118.899 100.5,124C 104.09,126.614 107.424,129.448 110.5,132.5C 107.948,132.355 105.615,131.855 103.5,131C 102.672,133.392 100.672,135.225 97.5,136.5C 98.8262,137.642 99.8262,138.976 100.5,140.5C 85.1702,135.173 70.5035,128.507 56.5,120.5C 55.1667,118.833 53.8333,117.167 52.5,115.5C 51.3228,113.897 51.4894,112.564 53,111.5C 54.3333,112.833 55.6667,114.167 57,115.5C 59.4526,109.244 63.9526,107.244 70.5,109.5 Z"/></g><g id="object-17" transform="matrix(1.134609, 0, 0, 1.134609, -33.655415, -22.227257)" style=""><path style="opacity:1" fill="#5fafd5" d="M 277.5,119.5 C 276.167,120.833 274.833,122.167 273.5,123.5C 262.918,128.807 251.918,133.14 240.5,136.5C 240.504,134.158 241.337,132.158 243,130.5C 250.969,131.469 258.469,129.802 265.5,125.5C 264.672,124.585 263.672,123.919 262.5,123.5C 260.119,125.392 257.453,125.892 254.5,125C 253.663,123.989 253.33,122.822 253.5,121.5C 251.856,121.286 250.356,121.62 249,122.5C 248.383,121.551 248.549,120.718 249.5,120C 247.866,119.506 246.199,119.34 244.5,119.5C 244.33,120.822 244.663,121.989 245.5,123C 241.331,126.528 236.664,127.362 231.5,125.5C 236.502,121.997 241.835,118.997 247.5,116.5C 253.299,115.4 258.799,113.4 264,110.5C 265.669,111.166 267.169,111.166 268.5,110.5C 272.941,112.273 275.941,115.273 277.5,119.5 Z"/></g><g id="object-18" transform="matrix(1.134609, 0, 0, 1.134609, -33.655415, -22.227257)" style=""><path style="opacity:1" fill="#54a5d1" d="M 240.5,136.5 C 239.205,137.488 237.872,138.488 236.5,139.5C 236.5,138.5 236.5,137.5 236.5,136.5C 234.278,136.178 232.444,136.845 231,138.5C 230.676,136.431 229.842,136.098 228.5,137.5C 227.269,136.349 227.269,135.183 228.5,134C 227.016,133.338 225.683,132.504 224.5,131.5C 226.234,128.8 228.568,126.8 231.5,125.5C 236.664,127.362 241.331,126.528 245.5,123C 244.663,121.989 244.33,120.822 244.5,119.5C 246.199,119.34 247.866,119.506 249.5,120C 248.549,120.718 248.383,121.551 249,122.5C 250.356,121.62 251.856,121.286 253.5,121.5C 253.33,122.822 253.663,123.989 254.5,125C 257.453,125.892 260.119,125.392 262.5,123.5C 263.672,123.919 264.672,124.585 265.5,125.5C 258.469,129.802 250.969,131.469 243,130.5C 241.337,132.158 240.504,134.158 240.5,136.5 Z"/></g><g id="object-19" transform="matrix(1.134609, 0, 0, 1.134609, -33.655415, -22.227257)" style=""><path style="opacity:1" fill="#51a2cd" d="M 220.5,130.5 C 219.227,132.713 218.227,135.046 217.5,137.5C 217.808,139.924 217.474,142.257 216.5,144.5C 214.226,144.97 212.226,145.97 210.5,147.5C 208.156,146.663 206.156,145.329 204.5,143.5C 201.914,144.21 199.914,143.21 198.5,140.5C 197.889,143.427 196.556,145.76 194.5,147.5C 195.637,141.259 197.47,135.259 200,129.5C 201.357,126.102 203.19,123.102 205.5,120.5C 206.688,121.048 207.855,121.381 209,121.5C 209.219,120.062 209.719,118.729 210.5,117.5C 218.48,118.513 221.813,122.846 220.5,130.5 Z"/></g><g id="object-20" transform="matrix(1.134609, 0, 0, 1.134609, -33.655415, -22.227257)" style=""><path style="opacity:1" fill="#52a2ce" d="M 133.5,129.5 C 136.7,136.098 139.033,143.098 140.5,150.5C 139.167,150.5 138.5,149.833 138.5,148.5C 136.503,142.227 133.003,140.894 128,144.5C 127.517,145.448 127.351,146.448 127.5,147.5C 126.5,147.5 125.5,147.5 124.5,147.5C 124.433,149.401 124.767,151.234 125.5,153C 125.164,154.03 124.497,154.53 123.5,154.5C 122.537,151.256 121.204,148.256 119.5,145.5C 118.358,142.741 117.024,140.074 115.5,137.5C 116.043,137.44 116.376,137.107 116.5,136.5C 114.822,133.805 113.156,131.139 111.5,128.5C 111.343,127.127 111.51,125.793 112,124.5C 114.205,123.387 116.038,122.387 117.5,121.5C 117.281,120.325 117.614,119.325 118.5,118.5C 121.28,119.762 122.946,118.762 123.5,115.5C 125.113,117.461 126.113,119.794 126.5,122.5C 127.325,123.386 128.325,123.719 129.5,123.5C 129.684,126.337 131.018,128.337 133.5,129.5 Z"/></g><g id="object-21" transform="matrix(1.134609, 0, 0, 1.134609, -33.655415, -22.227257)" style=""><path style="opacity: 1; fill: rgb(132, 201, 231);" d="M 158.5,72.5 C 158.666,77.1785 158.499,81.8452 158,86.5C 156.217,90.2982 155.384,94.2982 155.5,98.5C 154.81,103.233 154.144,108.066 153.5,113C 155.017,115.761 154.184,117.594 151,118.5C 150.654,123.275 149.821,127.942 148.5,132.5C 148.536,137.385 147.203,141.718 144.5,145.5C 148.678,120.949 153.344,96.6161 158.5,72.5 Z"/></g><g id="object-22" transform="matrix(1.134609, 0, 0, 1.134609, -33.655415, -22.227257)" style=""><path style="opacity: 1; fill: rgb(55, 124, 173);" d="M 168.5 40.5 C 176.682 79.074 184.348 117.741 191.5 156.5 C 191.5 156.833 191.5 157.167 191.5 157.5 C 189.911 167.143 187.577 176.477 184.5 185.5 C 178.579 175.327 172.913 143.703 167.5 133.209 C 167.168 95.039 167.501 78.33 168.5 40.5 Z"/></g><g id="object-23" transform="matrix(1.134609, 0, 0, 1.134609, -33.655415, -22.227257)" style=""><path style="opacity: 1; fill: rgb(49, 112, 165);" d="M 148.5 132.5 C 150.866 135.43 153.033 139.096 155 143.5 C 155.978 146.669 155.478 149.503 153.5 152 C 155.108 156.863 155.775 161.696 155.5 166.5 C 156.791 166.263 156.144 165.811 156.853 166.715 C 153.775 173.206 152.088 180.325 148.5 186.5 C 146.45 179.582 144.783 172.582 143.5 165.5 C 143.167 162.167 142.833 158.833 142.5 155.5 C 142.851 152.097 143.518 148.763 144.5 145.5 C 147.203 141.718 148.536 137.385 148.5 132.5 Z"/></g><g id="object-24" transform="matrix(1.134609, 0, 0, 1.134609, -33.655415, -22.227257)" style=""><path style="opacity:1" fill="#4e98c2" d="M 97.5,144.5 C 102.319,145.773 106.985,147.439 111.5,149.5C 112.167,149.5 112.833,149.5 113.5,149.5C 114.303,150.423 114.47,151.423 114,152.5C 112.391,155.037 110.225,156.704 107.5,157.5C 100.207,156.57 93.2067,154.904 86.5,152.5C 85.9423,151.21 84.9423,150.377 83.5,150C 85.1667,149.667 86.8333,149.333 88.5,149C 90.1288,145.034 93.1288,143.534 97.5,144.5 Z"/></g><g id="object-25" transform="matrix(1.134609, 0, 0, 1.134609, -33.655415, -22.227257)" style=""><path style="opacity:1" fill="#50a0cc" d="M 248.5,151.5 C 246.351,152.736 244.018,153.736 241.5,154.5C 241.611,153.883 241.944,153.383 242.5,153C 240.376,151.379 238.376,149.546 236.5,147.5C 234.591,146.652 232.591,146.318 230.5,146.5C 232.792,144.733 235.458,143.733 238.5,143.5C 242.011,142.411 245.511,142.411 249,143.5C 250.326,143.245 251.326,142.578 252,141.5C 254.266,144.354 253.766,146.187 250.5,147C 250.957,147.414 251.291,147.914 251.5,148.5C 250.23,149.288 249.23,150.288 248.5,151.5 Z"/></g><g id="object-26" transform="matrix(1.134609, 0, 0, 1.134609, -33.655415, -22.227257)" style=""><path style="opacity:1" fill="#4897c4" d="M 138.5,148.5 C 135.246,151.331 133.246,154.998 132.5,159.5C 129.107,161.464 127.607,164.131 128,167.5C 126.034,163.288 124.534,158.954 123.5,154.5C 124.497,154.53 125.164,154.03 125.5,153C 124.767,151.234 124.433,149.401 124.5,147.5C 125.5,147.5 126.5,147.5 127.5,147.5C 127.351,146.448 127.517,145.448 128,144.5C 133.003,140.894 136.503,142.227 138.5,148.5 Z"/></g><g id="object-27" transform="matrix(1.134609, 0, 0, 1.134609, -33.655415, -22.227257)" style=""><path style="opacity:1" fill="#68b2d3" d="M 97.5,144.5 C 93.1288,143.534 90.1288,145.034 88.5,149C 86.8333,149.333 85.1667,149.667 83.5,150C 84.9423,150.377 85.9423,151.21 86.5,152.5C 76.1524,148.986 67.9857,142.653 62,133.5C 61.0181,132.241 60.6848,130.908 61,129.5C 65.2582,132.38 69.7582,134.88 74.5,137C 82.4608,139.001 90.1274,141.501 97.5,144.5 Z"/></g><g id="object-28" transform="matrix(1.134609, 0, 0, 1.134609, -33.655415, -22.227257)" style=""><path style="opacity:1" fill="#3e91c2" d="M 110.5,132.5 C 112.5,133.833 114.167,135.5 115.5,137.5C 117.024,140.074 118.358,142.741 119.5,145.5C 118.624,147.922 117.124,148.588 115,147.5C 113.97,147.836 113.47,148.503 113.5,149.5C 112.833,149.5 112.167,149.5 111.5,149.5C 108.124,146.122 104.457,143.122 100.5,140.5C 99.8262,138.976 98.8262,137.642 97.5,136.5C 100.672,135.225 102.672,133.392 103.5,131C 105.615,131.855 107.948,132.355 110.5,132.5 Z"/></g><g id="object-29" transform="matrix(1.134609, 0, 0, 1.134609, -33.655415, -22.227257)" style=""><path style="opacity:1" fill="#6cafd5" d="M 271.5,129.5 C 271.833,129.5 272.167,129.5 272.5,129.5C 273.043,129.56 273.376,129.893 273.5,130.5C 267.855,140.821 259.522,147.821 248.5,151.5C 249.23,150.288 250.23,149.288 251.5,148.5C 251.291,147.914 250.957,147.414 250.5,147C 253.766,146.187 254.266,144.354 252,141.5C 251.326,142.578 250.326,143.245 249,143.5C 245.511,142.411 242.011,142.411 238.5,143.5C 246.429,140.799 254.429,137.966 262.5,135C 265.898,133.643 268.898,131.81 271.5,129.5 Z"/></g><g id="object-30" transform="matrix(1.134609, 0, 0, 1.134609, -33.655415, -22.227257)" style=""><path style="opacity:1" fill="#4394c3" d="M 224.5,131.5 C 225.683,132.504 227.016,133.338 228.5,134C 227.269,135.183 227.269,136.349 228.5,137.5C 229.842,136.098 230.676,136.431 231,138.5C 232.444,136.845 234.278,136.178 236.5,136.5C 236.5,137.5 236.5,138.5 236.5,139.5C 230.845,141.976 225.845,145.476 221.5,150C 224.135,148.39 227.135,147.223 230.5,146.5C 232.591,146.318 234.591,146.652 236.5,147.5C 238.376,149.546 240.376,151.379 242.5,153C 241.944,153.383 241.611,153.883 241.5,154.5C 233.873,156.323 226.206,157.99 218.5,159.5C 217.789,155.853 216.289,155.187 214,157.5C 213.275,155.842 212.108,155.342 210.5,156C 209.533,159.101 208.2,161.934 206.5,164.5C 203.02,161.506 199.186,159.173 195,157.5C 193.908,159.931 192.741,159.931 191.5,157.5C 191.5,157.167 191.5,156.833 191.5,156.5C 192.626,153.535 193.626,150.535 194.5,147.5C 196.556,145.76 197.889,143.427 198.5,140.5C 199.914,143.21 201.914,144.21 204.5,143.5C 206.156,145.329 208.156,146.663 210.5,147.5C 212.226,145.97 214.226,144.97 216.5,144.5C 217.474,142.257 217.808,139.924 217.5,137.5C 219.607,135.273 221.94,133.273 224.5,131.5 Z"/></g><g id="object-31" transform="matrix(1.134609, 0, 0, 1.134609, -33.655415, -22.227257)" style=""><path style="opacity:1" fill="#367bad" d="M 218.5,159.5 C 215.082,160.629 212.249,162.629 210,165.5C 204.973,174.221 200.473,183.221 196.5,192.5C 193.833,193.833 191.167,193.833 188.5,192.5C 187.408,189.976 186.074,187.643 184.5,185.5C 187.577,176.477 189.911,167.143 191.5,157.5C 192.741,159.931 193.908,159.931 195,157.5C 199.186,159.173 203.02,161.506 206.5,164.5C 208.2,161.934 209.533,159.101 210.5,156C 212.108,155.342 213.275,155.842 214,157.5C 216.289,155.187 217.789,155.853 218.5,159.5 Z"/></g><g id="object-32" transform="matrix(1.134609, 0, 0, 1.134609, -33.655415, -22.227257)" style=""><path style="opacity:1" fill="#3982b4" d="M 119.5,145.5 C 121.204,148.256 122.537,151.256 123.5,154.5C 124.534,158.954 126.034,163.288 128,167.5C 127.607,164.131 129.107,161.464 132.5,159.5C 133.246,154.998 135.246,151.331 138.5,148.5C 138.5,149.833 139.167,150.5 140.5,150.5C 141.167,152.167 141.833,153.833 142.5,155.5C 142.833,158.833 143.167,162.167 143.5,165.5C 143.785,167.288 143.452,168.955 142.5,170.5C 139.939,173.27 137.606,176.27 135.5,179.5C 134.844,181.453 134.511,183.453 134.5,185.5C 131.284,178.737 127.784,172.07 124,165.5C 119.125,161.594 113.625,158.928 107.5,157.5C 110.225,156.704 112.391,155.037 114,152.5C 114.47,151.423 114.303,150.423 113.5,149.5C 113.47,148.503 113.97,147.836 115,147.5C 117.124,148.588 118.624,147.922 119.5,145.5 Z"/></g><g id="object-33" transform="matrix(1.134609, 0, 0, 1.134609, -33.655415, -22.227257)" style=""><path style="opacity:1" fill="#3170a6" d="M 143.5,165.5 C 144.783,172.582 146.45,179.582 148.5,186.5C 147.247,192.421 143.58,194.754 137.5,193.5C 136.552,190.86 135.552,188.193 134.5,185.5C 134.511,183.453 134.844,181.453 135.5,179.5C 137.606,176.27 139.939,173.27 142.5,170.5C 143.452,168.955 143.785,167.288 143.5,165.5 Z"/></g><g id="object-34" transform="matrix(1.134609, 0, 0, 1.134609, -33.655415, -22.227257)" style=""><path style="opacity:1" fill="#193043" d="M 132.5,200.5 C 131.833,201.833 130.833,202.833 129.5,203.5C 128.188,204.145 127.188,205.145 126.5,206.5C 124.955,207.452 123.288,207.785 121.5,207.5C 121.719,206.325 121.386,205.325 120.5,204.5C 116.609,207.74 116.609,210.907 120.5,214C 119.594,217.979 117.761,221.479 115,224.5C 114.293,222.919 113.46,221.419 112.5,220C 117.908,219.838 118.574,218.338 114.5,215.5C 113.708,213.535 113.041,211.535 112.5,209.5C 112.396,201.99 112.73,194.49 113.5,187C 112.956,186.283 112.289,185.783 111.5,185.5C 111.5,185.167 111.5,184.833 111.5,184.5C 113.104,181.057 114.938,177.723 117,174.5C 117.718,173.549 118.551,173.383 119.5,174C 124.245,182.655 128.578,191.489 132.5,200.5 Z"/></g><g id="object-35" transform="matrix(1.134609, 0, 0, 1.134609, -33.655415, -22.227257)" style=""><path style="opacity:1" fill="#1c3348" d="M 238.5,238.5 C 233.625,229.764 228.458,221.097 223,212.5C 222.195,203.089 222.362,193.756 223.5,184.5C 225.32,180.86 227.153,177.193 229,173.5C 240.539,190.076 251.706,206.909 262.5,224C 254.859,229.484 246.859,234.317 238.5,238.5 Z"/></g><g id="object-36" transform="matrix(1.134609, 0, 0, 1.134609, -33.655415, -22.227257)" style=""><path style="opacity:1" fill="#295079" d="M 111.5,184.5 C 111.5,184.833 111.5,185.167 111.5,185.5C 110.67,193.99 110.17,202.657 110,211.5C 104.404,220.151 98.9039,228.817 93.5,237.5C 90.4604,236.32 87.7937,234.653 85.5,232.5C 85.4226,231.25 84.756,230.417 83.5,230C 84.8333,229.667 86.1667,229.333 87.5,229C 87.0426,228.586 86.7093,228.086 86.5,227.5C 87.5,226.167 88.5,224.833 89.5,223.5C 88.2634,222.719 87.2634,221.719 86.5,220.5C 87.0253,219.808 87.6919,219.308 88.5,219C 86.7703,217.148 85.6036,217.314 85,219.5C 84.2588,218.359 83.4255,218.359 82.5,219.5C 81.7564,218.009 81.0897,216.509 80.5,215C 82.5575,209.641 84.8908,204.474 87.5,199.5C 92.6587,190.52 98.3253,181.853 104.5,173.5C 106.608,177.401 108.941,181.067 111.5,184.5 Z"/></g><g id="object-37" transform="matrix(1.134609, 0, 0, 1.134609, -33.655415, -22.227257)" style=""><path style="opacity:1" fill="#294a6e" d="M 220.5,182.5 C 219.5,182.5 218.5,182.5 217.5,182.5C 217.5,184.167 217.5,185.833 217.5,187.5C 216.5,187.5 215.5,187.5 214.5,187.5C 213.858,194.384 212.858,201.384 211.5,208.5C 213.082,214.465 214.582,220.465 216,226.5C 217,227.167 218,227.833 219,228.5C 219.597,231.958 220.597,235.291 222,238.5C 224.415,235.858 227.249,235.191 230.5,236.5C 230.167,237.167 229.833,237.833 229.5,238.5C 230.91,239.569 231.91,240.903 232.5,242.5C 226.833,245.833 221.167,249.167 215.5,252.5C 213.118,239.165 209.785,226.165 205.5,213.5C 205.184,208.536 203.517,204.203 200.5,200.5C 204.626,190.914 209.293,181.581 214.5,172.5C 217.026,175.557 219.026,178.891 220.5,182.5 Z"/></g><g id="object-38" transform="matrix(1.134609, 0, 0, 1.134609, -33.655415, -22.227257)" style=""><path style="opacity:1" fill="#1a3246" d="M 167.471 143.964 C 173.252 154.023 178.948 190.725 184.5 201 C 190.016 201.817 195.35 201.651 200.5 200.5 C 203.517 204.203 205.184 208.536 205.5 213.5 C 205.643 215.262 205.309 216.929 204.5 218.5 C 200.905 219.538 197.238 220.204 193.5 220.5 C 188.152 219.386 182.818 219.386 177.5 220.5 C 175.161 221.418 173.661 223.084 173 225.5 C 171.806 223.377 171.14 221.043 171 218.5 C 169.602 219.051 168.268 219.384 167 219.5 C 165.961 218.756 165.461 217.756 165.5 216.5 C 166.152 201.069 166.79 159.199 167.471 143.964 Z"/></g><g id="object-39" transform="matrix(1.134609, 0, 0, 1.134609, -33.655415, -22.227257)" style=""><path style="opacity:1" fill="#1b354e" d="M 111.5,185.5 C 112.289,185.783 112.956,186.283 113.5,187C 112.73,194.49 112.396,201.99 112.5,209.5C 113.041,211.535 113.708,213.535 114.5,215.5C 118.574,218.338 117.908,219.838 112.5,220C 113.46,221.419 114.293,222.919 115,224.5C 117.761,221.479 119.594,217.979 120.5,214C 116.609,210.907 116.609,207.74 120.5,204.5C 121.386,205.325 121.719,206.325 121.5,207.5C 123.288,207.785 124.955,207.452 126.5,206.5C 127.188,205.145 128.188,204.145 129.5,203.5C 128.833,205.167 128.167,206.833 127.5,208.5C 121.363,217.946 115.363,227.446 109.5,237C 108.483,239.473 108.483,241.973 109.5,244.5C 108.167,244.5 106.833,244.5 105.5,244.5C 101.164,242.668 97.1638,240.335 93.5,237.5C 98.9039,228.817 104.404,220.151 110,211.5C 110.17,202.657 110.67,193.99 111.5,185.5 Z"/></g><g id="object-40" transform="matrix(1.134609, 0, 0, 1.134609, -33.655415, -22.227257)" style=""><path style="opacity:1" fill="#244667" d="M 87.5,199.5 C 84.8908,204.474 82.5575,209.641 80.5,215C 81.0897,216.509 81.7564,218.009 82.5,219.5C 83.4255,218.359 84.2588,218.359 85,219.5C 85.6036,217.314 86.7703,217.148 88.5,219C 87.6919,219.308 87.0253,219.808 86.5,220.5C 87.2634,221.719 88.2634,222.719 89.5,223.5C 88.5,224.833 87.5,226.167 86.5,227.5C 86.7093,228.086 87.0426,228.586 87.5,229C 86.1667,229.333 84.8333,229.667 83.5,230C 84.756,230.417 85.4226,231.25 85.5,232.5C 80.3608,230.431 75.6941,227.598 71.5,224C 76.2877,215.398 81.621,207.231 87.5,199.5 Z"/></g><g id="object-41" transform="matrix(1.134609, 0, 0, 1.134609, -33.655415, -22.227257)" style=""><path style="opacity:1" fill="#1e374f" d="M 205.5,213.5 C 209.785,226.165 213.118,239.165 215.5,252.5C 201.363,260.403 187.363,268.569 173.5,277C 168.833,277.667 164.167,277.667 159.5,277C 153.139,273.155 146.806,269.322 140.5,265.5C 142.171,260.827 143.837,256.161 145.5,251.5C 150.888,239.051 157.555,227.385 165.5,216.5C 165.461,217.756 165.961,218.756 167,219.5C 168.268,219.384 169.602,219.051 171,218.5C 171.14,221.043 171.806,223.377 173,225.5C 173.661,223.084 175.161,221.418 177.5,220.5C 182.818,219.386 188.152,219.386 193.5,220.5C 197.238,220.204 200.905,219.538 204.5,218.5C 205.309,216.929 205.643,215.262 205.5,213.5 Z"/></g><g id="object-42" transform="matrix(1.134609, 0, 0, 1.134609, -33.655415, -22.227257)" style=""><path style="opacity:1" fill="#294f77" d="M 132.5,200.5 C 137.74,201.449 143.073,201.782 148.5,201.5C 148.938,201.435 149.272,201.601 149.5,202C 146.189,203.894 143.522,206.561 141.5,210C 143.518,212.291 143.518,214.791 141.5,217.5C 145.208,219.626 145.374,221.959 142,224.5C 140.892,228.086 140.392,231.753 140.5,235.5C 139.5,235.5 138.5,235.5 137.5,235.5C 137.917,238.343 138.917,241.01 140.5,243.5C 141.814,242.687 142.981,241.687 144,240.5C 144.595,241.899 144.428,243.232 143.5,244.5C 144.025,245.192 144.692,245.692 145.5,246C 144.248,247.828 144.248,249.661 145.5,251.5C 143.837,256.161 142.171,260.827 140.5,265.5C 134.833,262.167 129.167,258.833 123.5,255.5C 123.617,253.516 122.95,251.85 121.5,250.5C 122.115,248.884 123.115,247.551 124.5,246.5C 124.167,245.833 123.833,245.167 123.5,244.5C 126,238.833 128.5,233.167 131,227.5C 132.262,223.091 131.428,219.257 128.5,216C 128.461,214.755 128.795,213.422 129.5,212C 129.389,210.278 128.889,210.112 128,211.5C 127.517,210.552 127.351,209.552 127.5,208.5C 128.167,206.833 128.833,205.167 129.5,203.5C 130.833,202.833 131.833,201.833 132.5,200.5 Z"/></g><g id="object-43" transform="matrix(1.134609, 0, 0, 1.134609, -33.655415, -22.227257)" style=""><path style="opacity:1" fill="#2c517a" d="M 220.5,182.5 C 221.222,183.551 222.222,184.218 223.5,184.5C 222.362,193.756 222.195,203.089 223,212.5C 228.458,221.097 233.625,229.764 238.5,238.5C 236.795,240.192 234.795,241.525 232.5,242.5C 231.91,240.903 230.91,239.569 229.5,238.5C 229.833,237.833 230.167,237.167 230.5,236.5C 227.249,235.191 224.415,235.858 222,238.5C 220.597,235.291 219.597,231.958 219,228.5C 218,227.833 217,227.167 216,226.5C 214.582,220.465 213.082,214.465 211.5,208.5C 212.858,201.384 213.858,194.384 214.5,187.5C 215.5,187.5 216.5,187.5 217.5,187.5C 217.5,185.833 217.5,184.167 217.5,182.5C 218.5,182.5 219.5,182.5 220.5,182.5 Z"/></g><g id="object-44" transform="matrix(1.134609, 0, 0, 1.134609, -33.655415, -22.227257)" style=""><path style="opacity:1" fill="#2e5781" d="M 167.524 145.273 C 166.843 160.508 166.152 201.069 165.5 216.5 C 157.555 227.385 150.888 239.051 145.5 251.5 C 144.248 249.661 144.248 247.828 145.5 246 C 144.692 245.692 144.025 245.192 143.5 244.5 C 144.428 243.232 144.595 241.899 144 240.5 C 142.981 241.687 141.814 242.687 140.5 243.5 C 138.917 241.01 137.917 238.343 137.5 235.5 C 138.5 235.5 139.5 235.5 140.5 235.5 C 140.392 231.753 140.892 228.086 142 224.5 C 145.374 221.959 145.208 219.626 141.5 217.5 C 143.518 214.791 143.518 212.291 141.5 210 C 143.522 206.561 146.189 203.894 149.5 202 C 149.272 201.601 148.938 201.435 148.5 201.5 C 154.408 191.354 156.71 177.064 162.135 166.543 C 162.892 165.27 166.947 144 167.524 145.273 Z"/></g><g id="object-45" transform="matrix(1.134609, 0, 0, 1.134609, -33.655415, -22.227257)" style=""><path style="opacity:1" fill="#26496a" d="M 127.5,208.5 C 127.351,209.552 127.517,210.552 128,211.5C 128.889,210.112 129.389,210.278 129.5,212C 128.795,213.422 128.461,214.755 128.5,216C 131.428,219.257 132.262,223.091 131,227.5C 128.5,233.167 126,238.833 123.5,244.5C 123.833,245.167 124.167,245.833 124.5,246.5C 123.115,247.551 122.115,248.884 121.5,250.5C 122.95,251.85 123.617,253.516 123.5,255.5C 117.464,251.819 111.464,248.152 105.5,244.5C 106.833,244.5 108.167,244.5 109.5,244.5C 108.483,241.973 108.483,239.473 109.5,237C 115.363,227.446 121.363,217.946 127.5,208.5 Z"/></g></svg>
